<?xml version="1.0" standalone="no"?>
<!DOCTYPE svg PUBLIC "-//W3C//DTD SVG 20010904//EN"
 "http://www.w3.org/TR/2001/REC-SVG-20010904/DTD/svg10.dtd">
<svg version="1.0" xmlns="http://www.w3.org/2000/svg"
 width="500.000000pt" height="500.000000pt" viewBox="0 0 500.000000 500.000000"
 preserveAspectRatio="xMidYMid meet">
<metadata>
Created by potrace 1.16, written by Peter Selinger 2001-2019
</metadata>
<g transform="translate(0.000000,500.000000) scale(0.100000,-0.100000)"
fill="#000000" stroke="none">
<path d="M0 2500 l0 -2500 2500 0 2500 0 0 2500 0 2500 -2500 0 -2500 0 0
-2500z m2589 1320 c306 -32 569 -221 700 -502 62 -131 75 -193 75 -353 1 -107
-3 -156 -18 -210 -26 -94 -86 -223 -140 -299 -50 -70 -169 -186 -191 -186 -13
0 -15 27 -15 168 l0 168 -64 31 c-35 18 -67 29 -70 26 -3 -4 -6 -115 -6 -248
l0 -242 -25 -11 c-57 -26 -55 -37 -55 284 0 278 1 296 18 289 9 -3 22 -7 27
-8 6 -1 10 82 10 233 l0 235 -165 0 -165 0 -2 -127 -2 -128 59 0 60 0 -2 -417
-3 -418 -67 -3 -68 -3 0 406 0 406 -42 -3 -43 -3 -2 -388 c-1 -214 -4 -394 -6
-402 -5 -11 -15 -11 -59 -1 l-53 11 -3 298 c-2 288 -3 297 -22 297 -19 0 -20
-9 -22 -287 -3 -326 4 -303 -87 -260 l-46 22 -3 263 -2 262 -45 0 -45 0 0
-225 c0 -262 3 -257 -92 -167 -121 114 -206 253 -248 402 -30 103 -37 279 -17
385 71 377 375 660 757 705 92 11 86 11 189 0z m-683 -2031 c41 -45 9 -173
-53 -214 -15 -11 -43 -19 -62 -19 -72 0 -131 113 -102 196 8 22 8 34 1 36 -5
2 -10 8 -10 13 0 5 47 9 103 9 93 0 106 -2 123 -21z m778 0 c21 -16 26 -29 26
-63 0 -49 -25 -129 -46 -147 -20 -16 -19 4 2 36 8 13 18 48 21 78 7 72 -14 97
-86 97 -78 0 -78 1 -73 -98 3 -64 0 -97 -11 -124 -18 -42 -68 -78 -109 -78
-43 0 -41 17 3 23 49 6 74 28 90 75 15 45 5 159 -16 182 -15 17 -13 18 22 28
69 18 147 14 177 -9z"/>
<path d="M2400 3793 c-68 -10 -168 -37 -229 -63 -185 -76 -346 -232 -435 -421
-50 -105 -67 -177 -73 -310 -12 -245 73 -464 246 -634 l61 -59 0 216 0 216 28
6 c15 2 42 4 60 2 l32 -3 0 302 c0 230 3 305 13 312 20 16 277 116 283 110 3
-2 6 -121 7 -263 l2 -259 43 -3 42 -3 0 145 0 146 190 0 190 0 0 -263 0 -264
83 -39 82 -39 5 -158 5 -158 58 58 c56 55 157 194 157 214 0 6 4 8 8 5 4 -2 8
3 9 12 1 9 16 58 34 107 28 79 33 106 37 221 3 101 1 149 -13 208 -74 336
-342 592 -680 651 -81 14 -185 18 -245 8z"/>
<path d="M2232 3383 l-112 -45 2 -297 3 -296 35 -1 35 0 5 95 5 96 83 3 82 3
0 244 c0 190 -3 245 -12 244 -7 0 -64 -21 -126 -46z"/>
<path d="M2230 2831 c0 -83 5 -91 51 -91 18 0 19 -13 21 -297 l3 -298 33 -3
32 -3 0 385 0 386 -70 0 -70 0 0 -79z"/>
<path d="M2502 2518 c3 -382 3 -391 23 -394 11 -2 30 -1 43 3 l22 5 0 389 0
389 -45 0 -45 0 2 -392z"/>
<path d="M2127 2713 c-4 -3 -7 -117 -7 -253 l0 -246 35 -17 c20 -9 38 -17 40
-17 3 0 5 122 5 270 l0 270 -33 0 c-19 0 -37 -3 -40 -7z"/>
<path d="M2806 2693 c-8 -8 -8 -498 0 -506 3 -3 12 -3 20 0 21 8 21 498 0 506
-8 3 -17 3 -20 0z"/>
<path d="M1741 1777 c-76 -38 -30 -197 58 -197 75 0 137 154 79 194 -27 19
-103 21 -137 3z"/>
</g>
</svg>
